# xmcd
#
# Track frame offsets:
#	150
#	10130
#	22190
#	36595
#	51450
#	63953
#	78621
#	92945
#	105931
#	119047
#	130679
#	144637
#	159503
#	174092
#	186038
#	198937
#	213177
#	226391
#	239004
#	251988
#
# Disc length: 3522 seconds
#
# Revision: 5
# Processed by: cddbd v1.5.2PL0 Copyright (c) Steve Scherf et al.
# Submitted via: EasyCDDAExtractor 15.3.0.1
#
DISCID=1f0dc014
DTITLE=Various Artist - Diggin' Deeper: Legendary Blues Treasures CD6
DYEAR=2004
DGENRE=Blues
TTITLE0=Robert Johnson - Little Queen of Spades
TTITLE1=Bukka White - District Attorney Blues
TTITLE2=Blind Willie McTell - Low Down Blues
TTITLE3=Big Bill Broonzy - Good Jelly
TTITLE4=Arthur Crudup - Standing at My Window
TTITLE5=Ma Rainey - Cell Bound Blues
TTITLE6=Leadbelly - TB Woman Blues
TTITLE7=Memphis Minnie - My Baby Don't Want Me No More
TTITLE8=Blind Boy Fuller and Sonny Terry - I'm a Stranger Here
TTITLE9=Brownie McGhee - My Barkin' Bulldog Blues
TTITLE10=Jimmy Yancey - Lean Bacon
TTITLE11=Bessie Smith - Aggravatin' Papa
TTITLE12=Mississippi John Hurt - Spike Driver Blues
TTITLE13=Kokomo Arnold - Sister Jane Cross the Hall
TTITLE14=Joe Turner - Cry Baby Blues
TTITLE15=John Lee Hooker - Henry's Swing Club
TTITLE16=Muddy Waters - Walking Blues
TTITLE17=Lightnin' Hopkins - I Can't Stay Here in Your Town
TTITLE18=Sleepy John Estes - Need More Blues
TTITLE19=John Lee Williamson - Check Up on My Baby Blues
EXTD=
EXTT0=
EXTT1=
EXTT2=
EXTT3=
EXTT4=
EXTT5=
EXTT6=
EXTT7=
EXTT8=
EXTT9=
EXTT10=
EXTT11=
EXTT12=
EXTT13=
EXTT14=
EXTT15=
EXTT16=
EXTT17=
EXTT18=
EXTT19=
PLAYORDER=
